<svg xmlns="http://www.w3.org/2000/svg" width="800" height="187" viewBox="0 0 800 187" fill="white">
    <path fill-rule="evenodd" clip-rule="evenodd"
        d="M76.461 1.40687C74.792 2.13387 72.123 4.11087 70.528 5.79987C67.036 9.49987 0.00703541 137.614 3.54099e-05 140.602C-0.0109646 145.268 2.53304 146.007 18.601 146.007C30.298 146.007 34.018 145.679 35.7 144.501C36.883 143.672 40.836 137.367 44.485 130.49L51.118 117.985L133.495 118.507L139.713 130.007C148.589 146.423 147.91 146.007 165.86 146.007C182.807 146.007 184.497 145.435 183.853 139.918C183.377 135.836 117.94 9.84887 114.108 5.63387C109.783 0.877872 106.365 0.00287218 92.277 0.0458722C83.959 0.0718722 78.435 0.546872 76.461 1.40687Z"
        fill="blue" />
    <path fill-rule="evenodd" clip-rule="evenodd"
        d="M196.516 2.39487C195.202 3.70887 193.854 6.29587 193.519 8.14487C193.184 9.99387 193.041 40.6839 193.202 76.3439L193.495 141.181L196.301 143.594C198.895 145.825 199.927 146.007 209.995 146.007C220.063 146.007 221.095 145.825 223.689 143.594L226.495 141.181L226.778 74.8439C226.934 38.3589 226.816 7.50687 226.516 6.28487C226.216 5.06187 224.991 3.14987 223.794 2.03487C221.873 0.244872 220.287 0.00687218 210.261 0.00687218C199.622 0.00687218 198.753 0.157872 196.516 2.39487Z" fill="blue" />
    <path fill-rule="evenodd" clip-rule="evenodd"
        d="M353.651 1.13987C350.022 3.24887 348.995 8.17687 348.995 23.4749V38.0069H305.154C257.202 38.0069 255.621 38.1679 247.938 43.8179C245.677 45.4799 242.576 48.5649 241.045 50.6739C235.761 57.9529 235.495 59.9819 235.495 93.0069V123.507L238.301 129.221C239.867 132.409 243.097 136.687 245.607 138.896C253.749 146.064 253.24 146.007 309.513 146.007H359.676L365.773 142.96C372.618 139.54 377.273 134.794 380.389 128.058C382.441 123.623 382.502 122.045 382.784 66.0579C383.088 5.67088 383.015 4.53487 378.635 1.46687C376.121 -0.294128 356.558 -0.550128 353.651 1.13987Z"
        fill="blue" />
    <path fill-rule="evenodd" clip-rule="evenodd"
        d="M609.332 2.52087C604.744 5.27087 600.98 11.6319 601.017 16.5729C601.049 20.8809 604.345 27.4169 607.628 29.6839C609.205 30.7729 619.27 35.3979 629.995 39.9629C656.734 51.3429 660.535 53.3869 667.015 59.8679C684.739 77.5919 685.192 107.23 668.017 125.39C661.962 131.792 657.813 134.052 630.995 145.554C619.72 150.39 609.247 155.208 607.722 156.261C604.21 158.686 600.995 164.922 600.995 169.31C600.995 174.704 604.949 181.057 609.955 183.704C612.35 184.971 615.802 186.007 617.625 186.007C621.222 186.007 784.402 115.989 791.035 111.599C802.73 103.86 802.949 82.8469 791.419 74.7519C789.261 73.2359 750.021 55.7989 704.22 36.0019C643.815 9.89187 619.922 0.00987218 617.22 0.0158722C615.042 0.0218722 611.766 1.06187 609.332 2.52087Z         "
        fill="blue" />
    <path fill-rule="evenodd" clip-rule="evenodd"
        d="    M393.068 40.6419C391.928 42.0909 391.003 43.5539 391.013 43.8919C391.022 44.2299 402.199 66.1069 415.85 92.5069C435.959 131.396 441.555 141.417 445.332 145.3C447.897 147.936 449.995 150.483 449.995 150.961C449.995 151.438 448.61 152.994 446.918 154.418C443.933 156.93 443.43 157.007 430.029 157.007C411.668 157.007 411.624 157.039 411.153 170.87C410.822 180.577 410.898 181.001 413.423 183.525L416.035 186.138L439.765 185.822C465.739 185.477 466.045 185.414 473.489 178.878C477.61 175.26 477.101 176.184 515.398 102.778C531.677 71.5769 544.995 44.9839 544.995 43.6829C544.995 38.7189 542.652 38.0069 526.312 38.0069C512.113 38.0069 511.154 38.1309 508.871 40.2569C507.542 41.4939 497.978 58.8199 487.618 78.7569C477.258 98.6949 468.461 115.007 468.07 115.007C467.679 115.007 458.851 98.6949 448.452 78.7569C438.053 58.8189 428.455 41.4939 427.123 40.2569C424.84 38.1339 423.867 38.0069 409.922 38.0069C395.144 38.0069 395.14 38.0079 393.068 40.6419Z"
        fill="blue" />
    <path fill-rule="evenodd" clip-rule="evenodd" d="M118.995 90.6449C118.995 90.8439 106.902 91.0069 92.122 91.0069H65.25L92.311 39.0049L105.653 64.6449C112.991 78.7459 118.995 90.4469 118.995 90.6449Z         " fill="white" />
    <path fill-rule="evenodd" clip-rule="evenodd" d="M627.495 54.8409C618.009 59.3079 617.088 62.5889 617.063 92.0069C617.042 116.488 617.604 121.667 620.74 125.868C628.164 135.811 642.226 134.839 647.745 124.001C649.91 119.749 649.995 118.588 649.995 93.1109C649.995 68.3799 649.859 66.3569 647.924 62.3599C644.195 54.6569 635.04 51.2869 627.495 54.8409Z" fill="yellow" />
    <path fill-rule="evenodd" clip-rule="evenodd" d="M348.963 89.2569C348.94 105.169 348.584 111.959 347.713 113.094C344.868 116.799 342.787 117.007 308.484 117.007H274.841L268.995 111.161V92.3059C268.995 72.1159 269.468 69.9699 274.352 67.9989C275.531 67.5229 292.808 67.1049 312.745 67.0699L348.995 67.0069L348.963 89.2569Z          " fill="white" />
    <path fill-rule="evenodd" clip-rule="evenodd" d="M588.495 77.4979C576.852 81.6479 573.45 95.2209 581.811 104.168C589.953 112.883 604.017 110.377 608.606 99.3959C613.985 86.5209 601.455 72.8769 588.495 77.4979Z" fill="yellow" />
</svg>